<svg width="24" height="24" viewBox="0 0 24 24" fill="none" xmlns="http://www.w3.org/2000/svg">
<mask id="mask0_76_302" style="mask-type:luminance" maskUnits="userSpaceOnUse" x="0" y="0" width="24" height="24">
<path d="M24 0H0V24H24V0Z" fill="white"/>
</mask>
<g mask="url(#mask0_76_302)">
<path d="M18.704 11.002C18.704 16.13 12.111 20.526 12.111 20.526C12.111 20.526 5.517 16.13 5.517 11.002C5.517 10.136 5.68756 9.27857 6.01894 8.47854C6.35032 7.67852 6.83603 6.95161 7.44834 6.3393C8.06065 5.72699 8.78756 5.24128 9.58758 4.9099C10.3876 4.57852 11.2451 4.40796 12.111 4.40796C12.9769 4.40796 13.8344 4.57852 14.6344 4.9099C15.4344 5.24128 16.1614 5.72699 16.7737 6.3393C17.386 6.95161 17.8717 7.67852 18.2031 8.47854C18.5344 9.27857 18.704 10.136 18.704 11.002Z" stroke="#2F8D46" stroke-width="1.5" stroke-linecap="round" stroke-linejoin="round"/>
<path d="M12.11 13.546C13.3018 13.546 14.268 12.5798 14.268 11.388C14.268 10.1961 13.3018 9.22998 12.11 9.22998C10.9182 9.22998 9.952 10.1961 9.952 11.388C9.952 12.5798 10.9182 13.546 12.11 13.546Z" stroke="#2F8D46" stroke-width="1.5" stroke-linecap="round" stroke-linejoin="round"/>
</g>
</svg>
